<?xml version="1.0" encoding="utf-8"?>
<!-- Generator: Adobe Illustrator 25.1.0, SVG Export Plug-In . SVG Version: 6.00 Build 0)  -->
<svg version="1.1" id="Layer_1" xmlns="http://www.w3.org/2000/svg" xmlns:xlink="http://www.w3.org/1999/xlink" x="0px" y="0px"
	 viewBox="0 0 504.6 477.1" style="enable-background:new 0 0 504.6 477.1;" xml:space="preserve">
<style type="text/css">
	.st0{fill:#FFFFFF;}
	.st1{fill:#FFBB00;}
</style>
<path class="st0" d="M184.6,441.6c0.8,9.3,1.7,17.5,2.1,25.8c0.1,3.1-0.1,7.4-2,9.1c-2.4,2.2-10.2-2.1-11.2-6
	c-0.9-3.6-1.5-7.6-1-11.3c3.5-24.9,5.7-50.1,11.5-74.5c8.9-37.4,20.4-74.1,30.8-111.2c0.4-1.6,0.7-3.2,1.1-4.8c-1.4,1-2.9,1.9-4.2,3
	c-12.4,11.8-24.8,23.7-37.2,35.6c-1.6,1.6-3.3,3.4-4.2,5.5c-20,45.6-39.9,91.2-59.8,136.9c-0.8,1.9-1.4,4.1-1.5,6.2
	c-0.3,4.3-1.8,6.7-6.5,5.9c-5.6-0.9-8.9-4.5-8-8.9c0.3-1.4,1.1-2.8,1.7-4.1c17.8-38.6,35.6-77.1,53.4-115.7c0.5-1.2,0.8-2.5,1.2-3.7
	c-1.2,0.6-2.6,1-3.7,1.8c-9.1,6.1-17.8,13-27.3,18.3c-7.9,4.4-15,0.7-17.4-7.2c-1.2-3.9,0.3-6.6,4.1-5.5c13.9,4,22.6-4.8,32-12.1
	c1.2-0.9,2.3-2,3.5-2.9c14.1-10.7,24.6-23.7,32.3-40.2c30.1-64.1,63.3-126.6,101.7-186.4c11.3-17.7,21.5-36.1,28.4-56.1
	c0.5-1.5,3.5-3.3,5.1-3.2c5.8,0.6,10.4,7.7,8.7,13.4c-0.9,3.2-2.4,6.2-3.9,9.2c-26.9,53.1-50.7,107.6-72.5,163
	c-0.2,0.6-0.5,1.2-0.7,1.9c-0.3,1.1-0.5,2.2-0.7,3.3c1-0.6,2.2-1.1,3-2c22.6-24.5,45.6-48.6,67.6-73.7c7.9-9,13.8-20,19.8-30.6
	c22.1-39.7,51.4-73.7,82.5-106.4c3.5-3.7,7.2-7.4,11-10.9c3.3-3.2,7.2-4.7,11.2-1.5c3.9,3.2,5.7,7.4,3.4,12.5
	c-0.8,1.6-1.9,3.2-3,4.6c-29.4,35.1-58.1,70.9-88.6,105.1c-25.1,28-45.4,58.8-61.4,92.4c-17.7,36.9-34.2,74.4-51.3,111.7
	c-1.5,3.3-1.9,5.8,1.5,8.5c1.4,1.1,1.3,5,0.7,7.4c-1.3,5.5-3.6,10.7-5,16.1c-0.4,1.5,0.3,3.8,1.4,4.9c0.6,0.6,3.1-0.2,4.4-1
	c9.9-5.3,11.1-5.4,19.8,2.1c3.8,3.2,7.2,3.6,11.3,1.3c6.1-3.4,12.3-6.7,18.6-9.8c9.5-4.6,18.6-4.9,26.6,3.2
	c8.6,8.7,18.4,9.9,29.2,4.5c3.6-1.8,7.5-2.9,11-4.7c18.9-9.2,38.3-11.4,58.8-6.1c22.8,5.9,45.3,2.5,67.5-4.3c4.9-1.5,9.9-3,15-3.7
	c2-0.3,4.2,1.6,6.3,2.6c-1.1,2-1.8,4.6-3.4,6c-2.2,1.9-5.1,3.1-7.9,4.1c-22.2,8-45,12.4-68.7,8.3c-3.1-0.5-6.3-0.7-9.4-1.4
	c-23.5-5.2-45.7-1.8-66.8,9.6c-1.6,0.9-3.4,1.4-5,2.2c-12.1,5.7-22.5,3.3-31.8-6.1c-6.7-6.8-8.4-7-17-2.7c-4.9,2.5-9.6,5.4-14.6,7.7
	c-10.3,4.8-20.3,5-29.3-3c-2.4-2.2-4.5-2.8-6.6,0c-5.1,6.7-10.9,9.6-18.7,4c-0.3-0.2-2.6,1.4-3.1,2.5c-3,8.3-5.8,16.7-8.5,25.1
	c-1.3,4-2.3,8-3.6,12c-2.4,7.5-3.8,8.4-9.6,6.5c-6.1-1.9-5-6.4-3.5-10.6c9.1-26.5,16.9-53.5,27.8-79.2
	c17.9-42.3,37.8-83.8,56.9-125.6c1-2.1,1.4-4.6,2.1-6.9c-1.7,1.5-3.6,2.9-5.2,4.5c-14.5,15-28.9,29.9-43.4,45
	c-1.5,1.5-2.9,3.3-3.6,5.3c-17.4,48.5-33.3,97.5-40.6,148.7C186.4,417.5,185.7,430,184.6,441.6z M272.8,122.9
	c-0.3-0.6-0.6-1.1-0.9-1.7c-0.8,0.7-1.9,1.3-2.4,2.2c-5.7,10.1-11.6,20.2-17,30.6c-21.1,40.1-42.1,80.2-63.1,120.4
	c-0.6,1.1-0.7,2.4-1.1,3.6c1.1-0.6,2.3-1.1,3.1-1.9c10.7-10.3,21.4-20.6,32-30.9c1.4-1.3,2.4-3.2,3.1-5
	c14.9-37.6,29.8-75.2,44.7-112.9C271.8,125.8,272.2,124.4,272.8,122.9z M357.4,99.4c1.4-1.5,2.4-2.4,3.2-3.4
	c14.8-18.6,29.6-37.3,44.3-56c1.1-1.3,1.7-3,2.5-4.5c-1.4,1-3.1,1.8-4.2,3.2c-15,19.1-30,38.2-44.9,57.3c-0.4,0.5-0.8,1.1-1,1.7
	C357.2,98,357.4,98.4,357.4,99.4z"/>
<path class="st0" d="M0,436.4c1.7-6.5,3.6-15.6,6.4-24.5c18.6-58.8,42.8-115.2,70.9-170c13.5-26.4,27.1-52.8,42.1-78.3
	c9.7-16.6,22-31.8,33.2-47.4c2.1-2.9,4.6-5.9,7.6-7.8c2.7-1.7,6.7-3.6,9.2-2.8c4.2,1.4,7.3,5.4,6.8,10.6
	c-1.5,15.1-2.7,30.2-9.3,44.3c-12.6,27.1-25.4,54-37.1,81.4c-7.9,18.5-13.9,37.7-20.9,56.6c-1.1,3-2.1,6.1-4,8.5
	c-1.3,1.7-4,2.3-6,3.4c-0.8-2-2.6-4.3-2.2-6.1c1.7-8.1,3.1-16.5,6.4-24c9.4-21.7,20.2-42.8,29.6-64.5c10.6-24.6,20.6-49.5,30.4-74.4
	c2.2-5.5,2.8-11.6,3.8-17.5c0.2-1.3-0.6-3.4-1.7-4.2c-0.7-0.5-3.1,0.2-3.9,1.1c-5.4,5.4-11.1,10.6-15.8,16.6
	c-16.9,22-29.9,46.5-42.3,71.2c-26.8,53.3-52.7,107.1-73.1,163.2C23.2,391.5,18,411.9,12.2,432c-1.2,4.4-2.7,10,2.3,12.7
	c4.9,2.7,9.2-1.4,12-4.9c5.8-7,11.2-14.4,15.9-22.2c3.8-6.4,8-9.9,14-9.1c3.7,0.5,5.8,2.5,4.4,6.1c-2.3,6.4-5.1,12.6-8,18.8
	c-0.4,0.9-2.3,2-3.2,1.8c-4.4-1.2-6.1,2-8.5,4.6c-4,4.4-8.3,8.7-12.6,12.8c-5.5,5.2-11.9,6.6-18.9,3.3C2.7,452.7,0.4,446.4,0,436.4z
	"/>
<path class="st1" d="M485.6,411.3c5.8,0,11.7-0.3,17.5,0.2c1.9,0.1,2,6.3,0.1,6.4c-45.9,3.4-91.5,8.7-136.7,17.3
	c-47.8,9-95.4,19.2-143,28.8c-3.5,0.7-7.1,0.8-10.7,1.1c3.4-1.8,6.6-4.3,10.2-5.1c52-11.6,103.9-24,156.2-34.2
	C414.3,418.8,485.6,410.9,485.6,411.3z"/>
<path class="st1" d="M92.7,404.2c3.3,0.2,4.4,1.6,2.1,7c-1.4,3.2-3.2,6.5-5.8,8.9c-1.3,1.2-4.9,1.1-6.7,0.2
	c-1.2-0.6-1.7-4.1-1.2-5.9C82.5,409.8,82.6,403.6,92.7,404.2z"/>
</svg>
