<svg style="max-width:200px" role="img" aria-describedby="logo-title" id="logo" xmlns="http://www.w3.org/2000/svg" xmlns:xlink="http://www.w3.org/1999/xlink" viewBox="0 0 504.58 477.13">
  <title id="logo-title">Craig Abbott signature Logo</title>
  <path class="text-colour" d="M184.6,441.62c0.8,9.26,1.74,17.53,2.1,25.83c0.13,3.09-0.09,7.35-1.98,9.08c-2.39,2.19-10.16-2.06-11.17-5.96
    c-0.94-3.63-1.48-7.64-0.96-11.31c3.51-24.88,5.67-50.12,11.47-74.48c8.91-37.39,20.41-74.15,30.79-111.19
    c0.44-1.56,0.7-3.17,1.05-4.76c-1.4,1.01-2.94,1.86-4.18,3.04c-12.42,11.84-24.82,23.71-37.15,35.64c-1.64,1.59-3.29,3.42-4.19,5.46
    c-20.01,45.6-39.92,91.24-59.79,136.9c-0.85,1.94-1.39,4.14-1.52,6.25c-0.27,4.26-1.84,6.68-6.53,5.89
    c-5.61-0.94-8.91-4.53-7.97-8.89c0.31-1.44,1.07-2.79,1.7-4.14c17.81-38.58,35.62-77.15,53.41-115.73c0.54-1.16,0.81-2.45,1.21-3.68
    c-1.24,0.59-2.57,1.05-3.7,1.81c-9.09,6.13-17.78,12.98-27.33,18.28c-7.93,4.4-15.03,0.74-17.44-7.2c-1.19-3.94,0.33-6.61,4.12-5.53
    c13.9,3.99,22.57-4.84,31.96-12.15c1.18-0.92,2.28-1.95,3.47-2.86c14.12-10.7,24.59-23.7,32.32-40.18
    c30.09-64.14,63.33-126.64,101.67-186.35c11.34-17.66,21.46-36.09,28.36-56.1c0.53-1.53,3.47-3.33,5.1-3.16
    c5.84,0.6,10.35,7.74,8.69,13.38c-0.94,3.17-2.42,6.21-3.92,9.17c-26.92,53.1-50.69,107.59-72.47,162.97
    c-0.24,0.62-0.5,1.24-0.66,1.89c-0.28,1.09-0.48,2.19-0.72,3.29c1.01-0.64,2.22-1.11,3-1.96c22.63-24.47,45.63-48.61,67.58-73.67
    c7.92-9.04,13.84-20,19.76-30.6c22.13-39.66,51.44-73.67,82.49-106.36c3.55-3.74,7.25-7.36,10.96-10.95
    c3.32-3.2,7.22-4.72,11.17-1.47c3.88,3.19,5.68,7.45,3.35,12.47c-0.76,1.64-1.87,3.15-3.04,4.55
    c-29.44,35.11-58.09,70.92-88.63,105.06c-25.06,28.01-45.35,58.83-61.44,92.44c-17.68,36.94-34.21,74.44-51.29,111.67
    c-1.51,3.3-1.91,5.76,1.52,8.54c1.38,1.12,1.3,5.04,0.72,7.4c-1.34,5.45-3.58,10.66-5.02,16.09c-0.39,1.46,0.34,3.75,1.4,4.85
    c0.57,0.59,3.09-0.22,4.44-0.95c9.94-5.33,11.1-5.42,19.82,2.1c3.75,3.23,7.16,3.57,11.33,1.28c6.14-3.36,12.3-6.7,18.58-9.76
    c9.49-4.62,18.61-4.92,26.63,3.19c8.64,8.74,18.35,9.9,29.2,4.48c3.57-1.78,7.46-2.92,11.04-4.68c18.86-9.21,38.27-11.39,58.77-6.13
    c22.84,5.85,45.3,2.47,67.46-4.32c4.93-1.51,9.92-3.01,14.99-3.72c1.95-0.28,4.21,1.64,6.32,2.56c-1.1,2.04-1.76,4.6-3.41,5.98
    c-2.24,1.87-5.12,3.14-7.91,4.15c-22.25,7.99-44.95,12.41-68.67,8.3c-3.12-0.54-6.31-0.72-9.39-1.41
    c-23.48-5.25-45.68-1.83-66.75,9.62c-1.6,0.87-3.37,1.44-5.03,2.22c-12.1,5.71-22.53,3.34-31.8-6.12
    c-6.69-6.82-8.41-6.98-16.96-2.66c-4.91,2.48-9.59,5.42-14.56,7.73c-10.29,4.79-20.31,5.04-29.29-3.03
    c-2.44-2.19-4.5-2.77-6.64,0.05c-5.09,6.72-10.92,9.57-18.72,4.04c-0.3-0.22-2.65,1.42-3.06,2.55c-2.98,8.31-5.75,16.69-8.48,25.08
    c-1.29,3.96-2.26,8.02-3.55,11.98c-2.44,7.5-3.82,8.36-9.57,6.53c-6.06-1.92-4.98-6.37-3.52-10.59
    c9.1-26.45,16.93-53.45,27.81-79.16c17.92-42.31,37.85-83.77,56.87-125.61c0.98-2.15,1.4-4.56,2.08-6.85
    c-1.74,1.5-3.6,2.87-5.19,4.51c-14.49,14.96-28.95,29.95-43.36,45c-1.46,1.52-2.91,3.32-3.61,5.27
    c-17.42,48.51-33.27,97.46-40.63,148.7C186.35,417.55,185.69,430.05,184.6,441.62z M272.77,122.91c-0.32-0.59-0.61-1.12-0.9-1.65
    c-0.82,0.71-1.91,1.26-2.41,2.15c-5.73,10.15-11.58,20.25-17.01,30.57c-21.12,40.09-42.1,80.25-63.1,120.4
    c-0.57,1.1-0.71,2.42-1.06,3.63c1.05-0.64,2.27-1.11,3.13-1.94c10.7-10.27,21.39-20.55,31.96-30.94c1.36-1.34,2.37-3.21,3.09-5.01
    c14.95-37.61,29.83-75.25,44.72-112.88C271.75,125.85,272.22,124.44,272.77,122.91z M357.39,99.36c1.43-1.5,2.43-2.39,3.25-3.43
    c14.79-18.63,29.58-37.27,44.31-55.95c1.06-1.34,1.69-3.02,2.53-4.54c-1.4,1.04-3.12,1.82-4.16,3.15
    c-15.04,19.07-29.98,38.2-44.94,57.33c-0.41,0.52-0.79,1.09-1.03,1.7C357.2,97.96,357.35,98.43,357.39,99.36z"/>
  <path class="text-colour" d="M0,436.38c1.67-6.49,3.59-15.62,6.39-24.47c18.6-58.76,42.78-115.24,70.91-170.02c13.54-26.37,27.13-52.77,42.12-78.33
    c9.74-16.6,21.96-31.76,33.23-47.45c2.12-2.95,4.64-5.88,7.62-7.84c2.66-1.74,6.73-3.63,9.25-2.76c4.21,1.45,7.28,5.43,6.78,10.59
    c-1.47,15.08-2.73,30.18-9.26,44.27c-12.55,27.05-25.4,53.98-37.09,81.41c-7.88,18.48-13.93,37.74-20.87,56.63
    c-1.08,2.95-2.11,6.09-3.98,8.52c-1.29,1.69-3.98,2.31-6.04,3.41c-0.78-2.04-2.55-4.3-2.17-6.1c1.73-8.11,3.11-16.5,6.38-24.02
    c9.44-21.68,20.17-42.81,29.57-64.51c10.65-24.59,20.58-49.49,30.43-74.42c2.17-5.49,2.83-11.62,3.84-17.51
    c0.23-1.33-0.63-3.39-1.69-4.2c-0.67-0.52-3.05,0.22-3.95,1.11c-5.4,5.4-11.13,10.6-15.76,16.63
    c-16.93,22.04-29.94,46.49-42.35,71.22c-26.76,53.33-52.67,107.08-73.05,163.24c-7.14,19.68-12.3,40.08-18.07,60.24
    c-1.25,4.36-2.7,10.02,2.3,12.74c4.93,2.68,9.19-1.42,12.02-4.86c5.76-7.01,11.23-14.38,15.87-22.16c3.82-6.41,8.03-9.93,13.97-9.11
    c3.69,0.51,5.77,2.46,4.43,6.09c-2.35,6.37-5.12,12.59-7.96,18.77c-0.43,0.94-2.33,2.05-3.22,1.81c-4.44-1.18-6.12,1.99-8.47,4.56
    c-4.04,4.42-8.26,8.69-12.59,12.83c-5.49,5.25-11.94,6.58-18.88,3.31C2.69,452.66,0.45,446.38,0,436.38z"/>
  <path class="highlight-colour" d="M485.64,411.32c5.83,0,11.68-0.28,17.48,0.16c1.9,0.14,1.98,6.26,0.13,6.4c-45.87,3.42-91.53,8.73-136.71,17.27
    c-47.78,9.04-95.35,19.17-143.02,28.75c-3.49,0.7-7.12,0.75-10.68,1.1c3.38-1.75,6.58-4.34,10.17-5.14
    c52.01-11.65,103.89-23.99,156.19-34.19C414.28,418.83,485.56,410.88,485.64,411.32z"/>
  <path class="highlight-colour" d="M92.68,404.2c3.3,0.17,4.44,1.63,2.07,7.04c-1.41,3.22-3.25,6.54-5.77,8.87c-1.32,1.22-4.93,1.15-6.74,0.2
	c-1.16-0.61-1.7-4.12-1.15-5.93C82.48,409.78,82.58,403.58,92.68,404.2z"/>
</svg>
